# xmcd CD database file
#
# Track frame offsets:
#	150
#	25102
#	47803
#	62794
#	78876
#	100315
#	112442
#	135264
#	149704
#	192555
#	213323
#	240818
#	265205
#	278648
#	293173
#
# Disc length: 4191 seconds
#
# Revision: 0
# Processed by: cddbd v1.5.2PL0 Copyright (c) Steve Scherf et al.
# Submitted via: CDex 1.51
#
DISCID=e0105d0f
DTITLE=Furay, Richie - Richie Furay Band Alive-Deluxe Edition Disc 2
DYEAR=2009
DGENRE=Country-Folk
TTITLE0=01 Sad Memory
TTITLE1=02 Heartbeat Of Love
TTITLE2=03 Make Me A Smile
TTITLE3=04 You Better Think Twice
TTITLE4=05 Baby Why
TTITLE5=06 Rise Up
TTITLE6=07 Believe Me
TTITLE7=08 Just In Case It Happens
TTITLE8=09 Medley #2-And Settlin' Down/Hurry Up/Fallin' In Love/C'mon
TTITLE9=10 Callin' Out Your Name
TTITLE10=11 Let's Dance Tonight
TTITLE11=12 In My Father's House
TTITLE12=13 Wake Up My Soul (Bonus Studio Track)
TTITLE13=14 With My Whole Heart (Bonus Studio Track)
TTITLE14=15 Real Love (Bonus Studio Track)
EXTD=YEAR: 2009
EXTT0=
EXTT1=
EXTT2=
EXTT3=
EXTT4=
EXTT5=
EXTT6=
EXTT7=
EXTT8=
EXTT9=
EXTT10=
EXTT11=
EXTT12=
EXTT13=
EXTT14=
PLAYORDER=
